# xmcd
#
# Track frame offsets:
#	150
#	35852
#	61609
#	96127
#	148354
#	204226
#
# Disc length: 3111 seconds
#
# Revision: 2
# Processed by: cddbd v1.5.2PL0 Copyright (c) Steve Scherf et al.
# Submitted via: audiograbber 1.83.01
#
DISCID=530c2506
DTITLE=Grateful Dead - 77-10-29 Evans Field House, Northern Illinois University
DTITLE=, DeKalb IL
DYEAR=1900
DGENRE=
TTITLE0=Bertha
TTITLE1=Good Lovin'
TTITLE2=Friend Of The Devil
TTITLE3=Estimated Prophet
TTITLE4=Eyes Of The World
TTITLE5=Space
EXTD=
EXTT0=
EXTT1=
EXTT2=
EXTT3=
EXTT4=
EXTT5=
PLAYORDER=
